<svg xmlns="http://www.w3.org/2000/svg" width="1024" height="1024" viewBox="0 0 1024 1024">
<g>
<path d="M 645.80 579.80 C644.31,581.29 638.18,581.31 635.50,579.84 C624.71,573.88 616.93,552.59 614.75,523.08 C614.61,521.19 614.05,519.51 613.50,519.33 C612.95,519.15 610.05,523.85 607.05,529.75 C590.06,563.25 570.57,580.11 554.90,574.86 C546.61,572.09 540.32,563.47 539.29,553.48 C538.97,550.46 538.49,548.00 538.22,548.00 C537.94,548.00 533.99,551.57 529.44,555.94 C512.58,572.13 499.78,573.96 486.75,562.05 C476.25,552.46 472.36,539.43 471.04,509.37 C470.24,491.31 469.31,486.00 466.92,486.00 C460.32,486.00 448.95,501.45 436.49,527.35 C429.61,541.65 422.08,560.70 420.58,567.62 C418.32,577.99 404.37,577.81 402.68,567.39 C402.36,565.47 403.18,553.91 404.49,541.70 C409.70,493.19 411.21,480.35 412.12,476.76 C413.78,470.26 421.92,467.83 426.55,472.45 C429.61,475.52 429.64,477.84 426.94,497.22 C425.80,505.35 425.01,513.46 425.19,515.25 C425.49,518.37 425.72,518.14 430.95,509.50 C448.61,480.36 461.40,468.11 473.00,469.23 C479.52,469.85 483.53,473.14 486.08,479.94 C487.79,484.52 488.31,489.13 489.02,506.01 C489.51,517.54 490.60,530.03 491.53,534.51 C494.35,548.24 500.12,556.00 507.50,555.99 C512.30,555.98 520.26,550.66 527.43,542.69 C537.13,531.89 539.78,527.94 541.01,522.43 C542.48,515.84 548.43,502.01 553.25,494.00 C561.96,479.52 571.32,469.78 581.94,464.11 C587.17,461.32 589.61,460.68 596.55,460.25 C604.20,459.77 605.30,459.95 610.04,462.43 C612.88,463.91 615.38,464.95 615.59,464.74 C615.80,464.53 617.09,456.74 618.45,447.43 C626.44,392.63 630.07,371.42 631.86,369.01 C634.56,365.36 639.28,364.28 643.58,366.33 C650.42,369.60 650.40,371.11 643.10,409.52 C640.38,423.81 637.23,441.35 636.10,448.50 C627.02,505.66 630.45,555.36 644.64,572.33 C647.24,575.44 647.63,577.97 645.80,579.80 ZM 259.75 609.21 C257.88,611.58 254.87,612.07 251.38,610.56 C234.74,603.36 223.44,540.64 228.04,480.95 C229.34,463.96 231.65,441.66 233.54,427.69 C235.41,413.94 234.85,412.47 228.16,413.39 C220.21,414.48 195.50,420.88 183.42,424.99 C170.25,429.46 157.26,435.65 155.95,438.09 C155.47,439.00 153.46,440.50 151.50,441.43 C148.55,442.83 147.32,442.93 144.48,441.99 C137.61,439.73 134.83,432.03 138.97,426.76 C140.06,425.38 144.45,422.44 148.72,420.22 C163.57,412.54 184.52,406.31 216.65,400.02 C234.22,396.58 236.28,395.96 239.51,393.12 C243.61,389.53 249.06,388.95 254.12,391.56 C256.84,392.97 258.27,392.97 268.97,391.58 C320.05,384.96 400.34,384.81 413.98,391.31 C416.81,392.66 417.88,397.03 415.80,398.74 C414.91,399.46 406.76,399.59 390.00,399.15 C349.59,398.08 319.03,399.72 279.59,405.09 C264.06,407.20 259.99,408.53 257.58,412.27 C253.62,418.42 247.80,463.34 246.46,498.00 C245.11,533.26 250.84,578.35 259.15,597.83 C261.30,602.87 261.52,606.96 259.75,609.21 ZM 679.93 597.75 C676.53,600.12 676.37,600.16 674.00,599.29 C670.66,598.06 669.00,595.62 669.00,591.92 C669.00,586.93 685.25,540.43 709.52,476.00 C713.77,464.73 718.25,452.80 719.48,449.50 C722.80,440.62 733.50,413.41 739.74,398.01 C749.11,374.90 750.42,373.00 757.03,373.00 C759.22,373.00 761.02,373.88 762.86,375.85 C764.33,377.42 773.62,395.31 783.51,415.60 C793.40,435.90 812.41,474.48 825.75,501.34 C854.72,559.70 855.36,562.02 840.37,554.81 L 833.50 551.50 L 821.00 526.44 C814.12,512.66 804.26,492.41 799.09,481.44 C793.91,470.47 785.95,453.96 781.41,444.75 C776.86,435.54 773.30,428.00 773.50,428.00 C774.04,428.00 759.96,397.64 758.91,396.54 C758.32,395.94 757.46,396.12 756.55,397.04 C754.19,399.44 739.25,437.89 719.07,493.50 C715.68,502.85 712.29,511.85 711.53,513.50 C710.77,515.15 709.21,519.20 708.05,522.50 C706.89,525.80 705.58,529.40 705.12,530.50 C704.66,531.60 700.77,543.08 696.46,556.00 C682.76,597.12 683.49,595.27 679.93,597.75 ZM 343.75 573.63 C333.00,579.07 322.85,577.11 314.60,567.98 C302.09,554.14 301.32,525.84 312.73,499.38 C321.97,477.94 335.24,466.20 349.07,467.20 C356.74,467.75 360.45,470.78 359.64,475.83 C359.17,478.70 359.58,479.57 362.61,482.24 C370.24,488.93 373.66,500.83 372.70,517.33 C371.28,541.84 358.87,565.96 343.75,573.63 ZM 559.76 560.03 C561.14,561.11 562.63,562.00 563.07,562.00 C571.03,562.00 587.46,542.59 600.32,518.00 C605.98,507.18 613.00,489.56 613.00,486.17 C613.00,485.11 611.84,482.18 610.43,479.65 C607.49,474.40 603.74,472.76 597.37,473.94 C591.63,475.01 587.23,477.64 581.37,483.50 C571.21,493.66 561.55,511.45 557.47,527.51 C553.60,542.79 554.52,555.90 559.76,560.03 ZM 870.90 598.36 C869.61,599.26 868.32,599.99 868.03,599.97 C866.55,599.88 863.01,597.18 858.73,592.88 C844.71,578.76 824.32,569.22 801.19,565.93 C790.51,564.42 761.10,565.25 751.00,567.36 C733.99,570.91 720.98,575.47 705.10,583.45 C697.34,587.35 696.02,587.73 694.94,586.43 C691.85,582.70 698.88,576.79 716.24,568.54 C739.30,557.58 757.23,553.23 783.00,552.38 C809.70,551.49 828.46,555.09 848.65,565.00 C863.95,572.50 871.36,580.81 872.68,591.93 C873.18,596.16 872.97,596.91 870.90,598.36 ZM 328.52 559.72 C332.41,563.61 335.40,563.87 340.10,560.73 C344.31,557.92 351.14,547.92 353.92,540.48 C356.99,532.28 359.27,516.68 358.45,509.56 C356.19,490.11 346.91,481.44 338.31,490.75 C333.92,495.50 326.65,510.51 324.63,519.00 C320.45,536.55 322.04,553.24 328.52,559.72 ZM 782.46 538.00 C778.87,538.00 777.40,538.51 775.94,540.25 C774.45,542.04 774.06,542.16 774.03,540.87 C774.01,539.98 774.67,538.68 775.50,538.00 C776.37,537.28 777.00,535.10 777.00,532.84 C777.00,528.61 779.64,522.54 782.68,519.79 C785.54,517.20 793.25,514.07 798.52,513.34 L 803.23 512.70 L 802.53 516.10 C800.78,524.67 799.65,527.38 796.27,531.12 C791.59,536.30 788.18,538.00 782.46,538.00 ZM 508.81 648.17 C508.64,650.47 507.94,652.53 507.25,652.76 C506.30,653.07 506.00,650.60 506.00,642.58 L 506.00 632.00 L 511.30 632.00 C514.22,632.00 517.14,632.54 517.80,633.20 C519.50,634.90 519.29,640.03 517.42,642.09 C515.98,643.68 516.04,644.17 518.16,647.85 C519.43,650.06 520.14,652.19 519.74,652.59 C518.71,653.63 515.40,650.38 513.97,646.93 C513.26,645.21 512.01,644.00 510.94,644.00 C509.51,644.00 509.05,644.92 508.81,648.17 ZM 315.80 648.85 C315.63,650.77 314.94,652.53 314.25,652.76 C313.30,653.07 313.00,650.59 313.00,642.53 L 313.00 631.90 L 318.72 632.20 C323.77,632.47 324.61,632.82 325.97,635.25 C328.26,639.35 325.88,643.18 320.28,644.43 C316.44,645.29 316.07,645.65 315.80,648.85 ZM 681.31 650.00 C680.07,653.26 677.98,654.06 678.03,651.25 C678.05,650.29 679.40,646.12 681.03,642.00 C682.66,637.88 683.99,633.91 684.00,633.18 C684.00,632.40 684.87,631.99 686.14,632.18 C687.81,632.43 689.01,634.38 691.58,641.00 C693.39,645.67 694.90,650.33 694.94,651.33 C695.03,653.90 692.77,652.90 691.20,649.68 C690.13,647.49 689.21,647.00 686.16,647.00 C682.94,647.00 682.29,647.41 681.31,650.00 ZM 651.00 644.88 C651.00,651.37 650.20,653.87 648.64,652.31 C648.29,651.95 648.00,647.24 648.00,641.83 C648.00,632.86 648.16,632.00 649.89,632.00 C651.15,632.00 653.06,634.15 655.64,638.48 C657.76,642.05 659.84,644.97 660.25,644.98 C660.66,644.99 661.00,642.08 661.00,638.50 C661.00,633.32 661.31,632.00 662.53,632.00 C663.83,632.00 664.03,633.57 663.78,642.17 C663.60,648.83 663.10,652.47 662.33,652.73 C661.68,652.94 659.27,649.93 656.95,646.04 C654.64,642.15 652.36,638.72 651.88,638.42 C651.39,638.13 651.00,641.03 651.00,644.88 ZM 478.15 650.00 C477.15,652.86 475.61,653.86 474.69,652.25 C474.45,651.84 475.83,647.11 477.76,641.75 C482.40,628.87 483.52,628.86 488.29,641.68 C490.27,647.01 491.67,651.73 491.39,652.18 C490.40,653.78 489.18,652.96 488.15,650.00 C487.23,647.35 486.64,647.00 483.15,647.00 C479.66,647.00 479.07,647.35 478.15,650.00 ZM 620.80 650.01 C618.78,653.56 616.55,654.06 617.53,650.75 C617.89,649.51 619.57,644.79 621.27,640.25 C625.40,629.18 626.79,629.25 630.80,640.75 C634.70,651.94 634.74,652.16 633.23,652.72 C632.49,652.99 631.51,651.90 630.88,650.09 C629.94,647.40 629.34,647.00 626.15,647.01 C623.15,647.01 622.20,647.54 620.80,650.01 ZM 425.15 650.00 C424.14,652.89 423.01,653.68 421.72,652.39 C421.39,652.06 422.04,649.47 423.16,646.64 C424.29,643.81 425.86,639.36 426.65,636.75 C428.96,629.07 431.07,630.19 435.10,641.25 C438.86,651.54 438.98,652.17 437.36,652.71 C436.74,652.92 435.75,651.72 435.17,650.05 C434.22,647.34 433.66,647.00 430.15,647.00 C426.66,647.00 426.07,647.35 425.15,650.00 ZM 407.75 651.25 C407.24,652.81 394.45,653.54 393.54,652.06 C392.78,650.84 393.98,648.48 399.14,641.07 C402.89,635.67 402.94,635.49 400.76,635.22 C391.56,634.08 391.72,632.00 401.00,632.00 C404.85,632.00 408.00,632.25 408.00,632.56 C408.00,632.86 405.75,636.62 403.00,640.91 C400.25,645.19 398.00,648.99 398.00,649.35 C398.00,649.71 400.29,650.00 403.08,650.00 C406.70,650.00 408.05,650.36 407.75,651.25 ZM 378.75 651.25 C378.49,652.06 375.80,652.60 371.17,652.79 C362.27,653.16 362.16,652.64 368.99,642.51 L 373.99 635.11 L 369.32 634.80 C366.72,634.63 364.47,633.95 364.24,633.25 C363.94,632.32 365.82,632.00 371.52,632.00 C371.86,632.00 372.18,632.00 372.49,632.00 C375.97,631.99 377.87,631.99 378.33,632.80 C378.88,633.78 377.33,635.94 373.93,640.70 C373.68,641.05 373.41,641.42 373.14,641.80 C370.39,645.66 368.41,649.08 368.74,649.40 C369.07,649.73 371.55,650.00 374.25,650.00 C377.74,650.00 379.05,650.36 378.75,651.25 ZM 575.00 651.50 C575.00,652.67 573.67,653.00 569.00,653.00 L 563.00 653.00 L 563.00 632.00 L 569.08 632.00 C576.23,632.00 577.08,634.30 570.11,634.81 C566.17,635.10 565.90,635.31 566.19,637.81 C566.46,640.13 567.02,640.54 570.27,640.81 C574.89,641.19 574.21,643.00 569.44,643.00 C566.18,643.00 566.00,643.18 566.00,646.50 C566.00,649.98 566.02,650.00 570.50,650.00 C573.83,650.00 575.00,650.39 575.00,651.50 ZM 602.06 650.94 C599.48,653.52 594.95,653.59 591.86,651.09 C589.14,648.88 590.12,646.97 593.03,648.79 C595.71,650.46 598.50,650.30 600.10,648.39 C601.58,646.60 600.30,645.19 594.11,641.80 C591.76,640.51 591.00,639.40 591.00,637.25 C591.00,635.68 591.54,633.86 592.20,633.20 C594.00,631.40 601.93,631.66 602.65,633.54 C603.48,635.69 602.34,636.53 600.58,635.07 C598.38,633.24 594.50,634.12 594.50,636.43 C594.50,637.67 596.12,639.31 599.00,640.99 C604.29,644.08 605.38,647.62 602.06,650.94 ZM 542.00 643.51 C542.00,651.21 541.27,653.94 539.64,652.31 C539.29,651.95 539.00,647.95 539.00,643.40 C539.00,635.18 538.98,635.13 536.33,634.82 C534.86,634.64 533.47,633.94 533.24,633.25 C532.94,632.32 534.81,632.00 540.50,632.00 C546.19,632.00 548.06,632.32 547.76,633.25 C547.53,633.94 546.14,634.64 544.67,634.82 C542.01,635.13 542.00,635.18 542.00,643.51 ZM 721.74 651.31 C721.29,652.65 710.40,653.55 709.78,652.30 C709.57,651.86 709.26,647.11 709.10,641.75 C708.85,633.47 709.04,632.00 710.37,632.00 C711.63,632.00 711.98,633.62 712.21,640.75 L 712.50 649.50 L 717.31 649.81 C720.49,650.01 721.99,650.52 721.74,651.31 ZM 346.51 645.75 C345.87,652.55 345.27,653.94 343.67,652.33 C343.30,651.97 343.00,647.21 343.00,641.76 C343.00,632.87 343.18,631.89 344.75,632.19 C346.94,632.60 347.40,636.17 346.51,645.75 ZM 316.00 638.06 C316.00,641.50 316.29,642.00 318.30,642.00 C319.57,642.00 321.14,641.46 321.80,640.80 C323.11,639.49 323.45,635.07 322.25,634.89 L 322.17 634.87 C318.67,634.34 317.16,634.11 316.50,634.76 C316.00,635.25 316.00,636.25 316.00,638.01 ZM 509.00 637.98 C509.00,642.26 509.42,642.55 513.43,641.02 C514.99,640.43 516.00,639.27 516.00,638.08 C516.00,635.86 515.61,635.54 511.75,634.62 C509.10,633.99 509.00,634.10 509.00,637.98 ZM 684.61 641.25 C684.03,643.69 684.24,644.00 686.48,644.00 C686.63,644.00 686.77,644.00 686.91,644.00 C687.94,644.01 688.52,644.01 688.74,643.73 C689.03,643.37 688.74,642.55 688.09,640.68 C688.02,640.49 687.95,640.29 687.88,640.07 C686.66,636.57 685.62,636.94 684.61,641.25 ZM 428.37 641.75 C427.90,643.52 428.18,644.00 429.72,644.00 C432.52,644.00 433.02,643.13 431.77,640.40 C430.74,638.14 429.02,637.11 428.99,638.75 C428.98,639.16 428.70,640.51 428.37,641.75 ZM 624.07 642.25 C624.03,643.36 624.74,644.00 626.00,644.00 C628.29,644.00 628.44,643.24 626.89,639.32 C625.86,636.70 625.72,636.64 624.96,638.50 C624.51,639.60 624.11,641.29 624.07,642.25 ZM 481.45 641.35 C480.84,643.78 481.01,644.15 482.61,643.84 C484.75,643.42 485.43,641.18 484.05,639.03 C482.89,637.22 482.37,637.69 481.45,641.35 Z" fill="rgb(66,42,23)"/>
<path d="M 686.30 586.18 C688.37,580.32 691.45,571.03 696.46,556.00 C700.77,543.08 704.66,531.60 705.12,530.50 C705.58,529.40 706.89,525.80 708.05,522.50 C709.21,519.20 710.77,515.15 711.53,513.50 C711.98,512.51 713.40,508.85 715.19,504.05 C712.80,510.82 711.43,515.00 711.65,515.00 C711.89,515.00 713.84,514.10 716.00,513.00 C720.33,510.79 728.15,510.35 732.68,512.06 C736.69,513.58 740.95,517.84 743.10,522.50 C749.56,536.44 737.76,551.84 722.39,549.54 C715.03,548.43 707.70,541.70 706.30,534.75 C706.00,533.24 705.47,532.00 705.12,532.01 C704.78,532.02 703.54,535.05 702.37,538.76 C701.19,542.47 696.41,556.75 691.74,570.50 C689.39,577.42 687.66,582.46 686.30,586.18 ZM 773.49 504.25 C766.16,509.35 755.60,508.47 748.66,502.20 C741.25,495.49 741.26,480.50 748.68,473.79 C753.45,469.48 763.44,467.70 769.68,470.06 C773.46,471.49 777.76,475.68 780.09,480.21 C784.14,488.09 781.17,498.92 773.49,504.25 ZM 766.67 412.40 C770.31,420.23 773.77,428.00 773.50,428.00 C773.30,428.00 776.86,435.54 781.41,444.75 L 781.65 445.25 C781.63,445.21 781.62,445.19 781.60,445.16 C780.96,444.13 780.06,444.50 777.64,446.79 C771.70,452.41 766.73,453.46 761.73,450.16 C757.58,447.43 756.07,444.91 756.03,440.70 C755.97,433.00 761.34,427.68 768.84,428.03 C770.85,428.12 772.81,428.15 773.18,428.10 C773.56,428.04 770.23,420.24 766.67,412.40 ZM 803.89 491.50 C809.15,502.42 815.90,516.21 821.00,526.44 L 833.50 551.50 L 821.76 528.12 C815.30,515.27 808.02,500.42 805.58,495.12 C805.09,494.06 804.52,492.85 803.89,491.50 ZM 755.28 399.21 C755.85,398.05 756.28,397.31 756.55,397.04 C756.80,396.79 757.05,396.59 757.30,396.44 C756.72,396.88 756.07,397.78 755.28,399.21 ZM 679.93 597.75 C680.16,597.59 680.37,597.45 680.57,597.32 C680.38,597.47 680.18,597.61 679.97,597.75 C678.12,599.03 677.21,599.63 676.41,599.78 C677.21,599.63 678.10,599.03 679.93,597.75 Z" fill="rgb(116,99,83)"/>
<path d="M 515.82 726.29 C516.26,728.57 512.19,728.52 505.37,726.16 C498.31,723.72 495.61,721.77 491.26,715.93 C487.61,711.05 487.39,710.93 483.50,711.53 C481.30,711.87 476.16,713.70 472.08,715.61 C467.43,717.77 464.31,718.71 463.72,718.12 C462.37,716.77 469.91,711.56 475.46,710.01 C479.49,708.88 480.27,708.19 482.06,704.12 C485.59,696.13 492.34,690.94 502.25,688.61 C505.46,687.85 505.73,688.90 503.32,692.79 C500.12,697.94 497.48,700.21 490.75,703.61 C487.04,705.49 484.00,707.27 484.00,707.57 C484.00,707.88 485.91,707.89 488.25,707.60 C490.59,707.31 495.44,706.80 499.03,706.48 C505.54,705.89 505.58,705.87 509.00,700.86 C510.88,698.10 514.24,694.77 516.46,693.47 C520.45,691.14 529.81,688.48 530.75,689.41 C531.01,689.68 530.26,691.45 529.09,693.36 C526.78,697.09 519.49,702.27 513.93,704.13 C506.98,706.45 508.37,707.17 519.17,706.83 C528.41,706.54 530.16,706.21 532.17,704.36 C533.45,703.19 536.37,701.29 538.66,700.14 C543.63,697.64 556.15,694.86 557.34,695.99 C558.82,697.39 551.17,704.68 545.79,707.00 C542.25,708.52 538.15,709.32 532.93,709.51 C528.72,709.66 523.77,710.11 521.93,710.52 C518.73,711.22 518.91,711.33 525.88,713.10 C529.89,714.12 535.68,716.39 538.73,718.13 C543.85,721.06 544.15,721.42 542.45,722.66 C541.44,723.40 538.21,724.00 535.28,724.00 C528.63,724.00 521.81,720.74 516.77,715.16 L 513.16 711.17 L 503.21 710.47 C491.66,709.65 489.25,710.90 497.79,713.29 C503.91,715.00 515.21,723.15 515.82,726.29 ZM 610.82 705.25 C610.51,707.44 610.13,707.51 597.23,707.78 C586.25,708.01 583.86,707.80 583.39,706.58 C582.20,703.48 584.10,703.00 597.63,703.00 C611.07,703.00 611.14,703.01 610.82,705.25 ZM 439.82 705.25 C439.51,707.44 439.14,707.51 426.85,707.68 C417.90,707.81 413.68,707.49 412.44,706.58 C408.68,703.83 411.87,703.00 426.13,703.00 C440.09,703.00 440.14,703.01 439.82,705.25 ZM 698.41 550.73 C700.32,545.04 701.79,540.60 702.37,538.76 C703.54,535.05 704.78,532.02 705.12,532.01 C705.47,532.00 706.00,533.24 706.30,534.75 C706.42,535.36 706.59,535.96 706.80,536.56 C706.02,535.07 705.27,534.00 704.96,534.00 C704.49,534.00 702.50,539.04 698.41,550.73 ZM 722.12 549.49 C722.21,549.51 722.30,549.52 722.39,549.54 C730.50,550.75 737.60,547.05 741.57,541.23 C740.57,542.78 739.40,544.17 738.11,545.25 C733.43,549.19 727.57,550.48 722.12,549.49 ZM 709.34 541.27 C712.02,544.87 716.03,547.82 720.25,549.06 C715.96,547.84 712.05,545.18 709.34,541.27 ZM 744.69 533.40 C745.01,531.30 744.99,529.12 744.55,526.92 C744.82,528.12 744.96,529.32 744.96,530.50 C744.96,531.44 744.86,532.42 744.69,533.40 ZM 739.88 517.51 C737.76,515.01 735.17,513.00 732.68,512.06 C735.34,513.07 737.84,515.04 739.88,517.51 Z" fill="rgb(183,171,155)"/>
<path d="M 0.00 512.00 L 0.00 0.00 L 512.00 0.00 L 1024.00 0.00 L 1024.00 512.00 L 1024.00 1024.00 L 512.00 1024.00 L 0.00 1024.00 L 0.00 512.00 ZM 515.82 726.29 C515.21,723.15 503.91,715.00 497.79,713.29 C489.25,710.90 491.66,709.65 503.21,710.47 L 513.16 711.17 L 516.77 715.16 C521.81,720.74 528.63,724.00 535.28,724.00 C538.21,724.00 541.44,723.40 542.45,722.66 C544.15,721.42 543.85,721.06 538.73,718.13 C535.68,716.39 529.89,714.12 525.88,713.10 C518.91,711.33 518.73,711.22 521.93,710.52 C523.77,710.11 528.72,709.66 532.93,709.51 C538.15,709.32 542.25,708.52 545.79,707.00 C551.17,704.68 558.82,697.39 557.34,695.99 C556.15,694.86 543.63,697.64 538.66,700.14 C536.37,701.29 533.45,703.19 532.17,704.36 C530.16,706.21 528.41,706.54 519.17,706.83 C508.37,707.17 506.98,706.45 513.93,704.13 C519.49,702.27 526.78,697.09 529.09,693.36 C530.26,691.45 531.01,689.68 530.75,689.41 C529.81,688.48 520.45,691.14 516.46,693.47 C514.24,694.77 510.88,698.10 509.00,700.86 C505.58,705.87 505.54,705.89 499.03,706.48 C495.44,706.80 490.59,707.31 488.25,707.60 C485.91,707.89 484.00,707.88 484.00,707.57 C484.00,707.27 487.04,705.49 490.75,703.61 C497.48,700.21 500.12,697.94 503.32,692.79 C505.73,688.90 505.46,687.85 502.25,688.61 C492.34,690.94 485.59,696.13 482.06,704.12 C480.27,708.19 479.49,708.88 475.46,710.01 C469.91,711.56 462.37,716.77 463.72,718.12 C464.31,718.71 467.43,717.77 472.08,715.61 C476.16,713.70 481.30,711.87 483.50,711.53 C487.39,710.93 487.61,711.05 491.26,715.93 C495.61,721.77 498.31,723.72 505.37,726.16 C512.19,728.52 516.26,728.57 515.82,726.29 ZM 439.82 705.25 C440.14,703.01 440.09,703.00 426.13,703.00 C411.87,703.00 408.68,703.83 412.44,706.58 C413.68,707.49 417.90,707.81 426.85,707.68 C439.14,707.51 439.51,707.44 439.82,705.25 ZM 610.82 705.25 C611.14,703.01 611.07,703.00 597.63,703.00 C584.10,703.00 582.20,703.48 583.39,706.58 C583.86,707.80 586.25,708.01 597.23,707.78 C610.13,707.51 610.51,707.44 610.82,705.25 ZM 315.80 648.85 C316.07,645.65 316.44,645.29 320.28,644.43 C325.88,643.18 328.26,639.35 325.97,635.25 C324.61,632.82 323.77,632.47 318.72,632.20 L 313.00 631.90 L 313.00 642.53 C313.00,650.59 313.30,653.07 314.25,652.76 C314.94,652.53 315.63,650.77 315.80,648.85 ZM 346.51 645.75 C347.40,636.17 346.94,632.60 344.75,632.19 C343.18,631.89 343.00,632.87 343.00,641.76 C343.00,647.21 343.30,651.97 343.67,652.33 C345.27,653.94 345.87,652.55 346.51,645.75 ZM 378.75 651.25 C379.05,650.36 377.74,650.00 374.25,650.00 C371.55,650.00 369.07,649.73 368.74,649.40 C368.41,649.08 370.39,645.66 373.14,641.80 C380.42,631.60 380.48,632.00 371.52,632.00 C365.82,632.00 363.94,632.32 364.24,633.25 C364.47,633.95 366.72,634.63 369.32,634.80 L 373.99 635.11 L 368.99 642.51 C362.16,652.64 362.27,653.16 371.17,652.79 C375.80,652.60 378.49,652.06 378.75,651.25 ZM 407.75 651.25 C408.05,650.36 406.70,650.00 403.08,650.00 C400.29,650.00 398.00,649.71 398.00,649.35 C398.00,648.99 400.25,645.19 403.00,640.91 C405.75,636.62 408.00,632.86 408.00,632.56 C408.00,632.25 404.85,632.00 401.00,632.00 C391.72,632.00 391.56,634.08 400.76,635.22 C402.94,635.49 402.89,635.67 399.14,641.07 C393.98,648.48 392.78,650.84 393.54,652.06 C394.45,653.54 407.24,652.81 407.75,651.25 ZM 425.15 650.00 C426.07,647.35 426.66,647.00 430.15,647.00 C433.66,647.00 434.22,647.34 435.17,650.05 C435.75,651.72 436.74,652.92 437.36,652.71 C438.98,652.17 438.86,651.54 435.10,641.25 C431.07,630.19 428.96,629.07 426.65,636.75 C425.86,639.36 424.29,643.81 423.16,646.64 C422.04,649.47 421.39,652.06 421.72,652.39 C423.01,653.68 424.14,652.89 425.15,650.00 ZM 478.15 650.00 C479.07,647.35 479.66,647.00 483.15,647.00 C486.64,647.00 487.23,647.35 488.15,650.00 C489.18,652.96 490.40,653.78 491.39,652.18 C491.67,651.73 490.27,647.01 488.29,641.68 C483.52,628.86 482.40,628.87 477.76,641.75 C475.83,647.11 474.45,651.84 474.69,652.25 C475.61,653.86 477.15,652.86 478.15,650.00 ZM 508.81 648.17 C509.05,644.92 509.51,644.00 510.94,644.00 C512.01,644.00 513.26,645.21 513.97,646.93 C515.40,650.38 518.71,653.63 519.74,652.59 C520.14,652.19 519.43,650.06 518.16,647.85 C516.04,644.17 515.98,643.68 517.42,642.09 C519.29,640.03 519.50,634.90 517.80,633.20 C517.14,632.54 514.22,632.00 511.30,632.00 L 506.00 632.00 L 506.00 642.58 C506.00,650.60 506.30,653.07 507.25,652.76 C507.94,652.53 508.64,650.47 508.81,648.17 ZM 542.00 643.51 C542.00,635.18 542.01,635.13 544.67,634.82 C546.14,634.64 547.53,633.94 547.76,633.25 C548.06,632.32 546.19,632.00 540.50,632.00 C534.81,632.00 532.94,632.32 533.24,633.25 C533.47,633.94 534.86,634.64 536.33,634.82 C538.98,635.13 539.00,635.18 539.00,643.40 C539.00,647.95 539.29,651.95 539.64,652.31 C541.27,653.94 542.00,651.21 542.00,643.51 ZM 575.00 651.50 C575.00,650.39 573.83,650.00 570.50,650.00 C566.02,650.00 566.00,649.98 566.00,646.50 C566.00,643.18 566.18,643.00 569.44,643.00 C574.21,643.00 574.89,641.19 570.27,640.81 C567.02,640.54 566.46,640.13 566.19,637.81 C565.90,635.31 566.17,635.10 570.11,634.81 C577.08,634.30 576.23,632.00 569.08,632.00 L 563.00 632.00 L 563.00 642.50 L 563.00 653.00 L 569.00 653.00 C573.67,653.00 575.00,652.67 575.00,651.50 ZM 602.06 650.94 C605.38,647.62 604.29,644.08 599.00,640.99 C596.12,639.31 594.50,637.67 594.50,636.43 C594.50,634.12 598.38,633.24 600.58,635.07 C602.34,636.53 603.48,635.69 602.65,633.54 C601.93,631.66 594.00,631.40 592.20,633.20 C591.54,633.86 591.00,635.68 591.00,637.25 C591.00,639.40 591.76,640.51 594.11,641.80 C600.30,645.19 601.58,646.60 600.10,648.39 C598.50,650.30 595.71,650.46 593.03,648.79 C590.12,646.97 589.14,648.88 591.86,651.09 C594.95,653.59 599.48,653.52 602.06,650.94 ZM 620.80 650.01 C622.20,647.54 623.15,647.01 626.15,647.01 C629.34,647.00 629.94,647.40 630.88,650.09 C631.51,651.90 632.49,652.99 633.23,652.72 C634.74,652.16 634.70,651.94 630.80,640.75 C626.79,629.25 625.40,629.18 621.27,640.25 C619.57,644.79 617.89,649.51 617.53,650.75 C616.55,654.06 618.78,653.56 620.80,650.01 ZM 651.00 644.88 C651.00,641.03 651.39,638.13 651.88,638.42 C652.36,638.72 654.64,642.15 656.95,646.04 C659.27,649.93 661.68,652.94 662.33,652.73 C663.10,652.47 663.60,648.83 663.78,642.17 C664.03,633.57 663.83,632.00 662.53,632.00 C661.31,632.00 661.00,633.32 661.00,638.50 C661.00,642.08 660.66,644.99 660.25,644.98 C659.84,644.97 657.76,642.05 655.64,638.48 C653.06,634.15 651.15,632.00 649.89,632.00 C648.16,632.00 648.00,632.86 648.00,641.83 C648.00,647.24 648.29,651.95 648.64,652.31 C650.20,653.87 651.00,651.37 651.00,644.88 ZM 681.31 650.00 C682.29,647.41 682.94,647.00 686.16,647.00 C689.21,647.00 690.13,647.49 691.20,649.68 C692.77,652.90 695.03,653.90 694.94,651.33 C694.90,650.33 693.39,645.67 691.58,641.00 C689.01,634.38 687.81,632.43 686.14,632.18 C684.87,631.99 684.00,632.40 684.00,633.18 C683.99,633.91 682.66,637.88 681.03,642.00 C679.40,646.12 678.05,650.29 678.03,651.25 C677.98,654.06 680.07,653.26 681.31,650.00 ZM 721.74 651.31 C721.99,650.52 720.49,650.01 717.31,649.81 L 712.50 649.50 L 712.21 640.75 C711.98,633.62 711.63,632.00 710.37,632.00 C709.04,632.00 708.85,633.47 709.10,641.75 C709.26,647.11 709.57,651.86 709.78,652.30 C710.40,653.55 721.29,652.65 721.74,651.31 ZM 259.75 609.21 C261.52,606.96 261.30,602.87 259.15,597.83 C250.84,578.35 245.11,533.26 246.46,498.00 C247.80,463.34 253.62,418.42 257.58,412.27 C259.99,408.53 264.06,407.20 279.59,405.09 C319.03,399.72 349.59,398.08 390.00,399.15 C406.76,399.59 414.91,399.46 415.80,398.74 C417.88,397.03 416.81,392.66 413.98,391.31 C400.34,384.81 320.05,384.96 268.97,391.58 C258.27,392.97 256.84,392.97 254.12,391.56 C249.06,388.95 243.61,389.53 239.51,393.12 C236.28,395.96 234.22,396.58 216.65,400.02 C184.52,406.31 163.57,412.54 148.72,420.22 C144.45,422.44 140.06,425.38 138.97,426.76 C134.83,432.03 137.61,439.73 144.48,441.99 C147.32,442.93 148.55,442.83 151.50,441.43 C153.46,440.50 155.47,439.00 155.95,438.09 C157.26,435.65 170.25,429.46 183.42,424.99 C195.50,420.88 220.21,414.48 228.16,413.39 C234.85,412.47 235.41,413.94 233.54,427.69 C231.65,441.66 229.34,463.96 228.04,480.95 C223.44,540.64 234.74,603.36 251.38,610.56 C254.87,612.07 257.88,611.58 259.75,609.21 ZM 679.96 597.75 C682.86,595.74 683.85,593.62 689.10,578.00 C699.68,546.57 704.21,534.00 704.96,534.00 C705.37,534.00 706.52,535.82 707.52,538.05 C712.93,550.03 728.17,553.62 738.11,545.25 C742.08,541.91 744.96,535.72 744.96,530.50 C744.96,523.05 739.31,514.57 732.68,512.06 C728.15,510.35 720.33,510.79 716.00,513.00 C713.84,514.10 711.89,515.00 711.65,515.00 C710.70,515.00 738.76,439.12 750.48,410.00 C755.27,398.09 757.29,394.86 758.91,396.54 C760.40,398.09 773.92,427.99 773.18,428.10 C772.81,428.15 770.85,428.12 768.84,428.03 C761.34,427.68 755.97,433.00 756.03,440.70 C756.07,444.91 757.58,447.43 761.73,450.16 C766.73,453.46 771.70,452.41 777.64,446.79 C780.06,444.50 780.96,444.13 781.60,445.16 C782.65,446.85 799.68,482.35 805.58,495.12 C808.02,500.42 815.30,515.27 821.76,528.12 L 833.50 551.50 L 840.37 554.81 C855.36,562.02 854.72,559.70 825.75,501.34 C812.41,474.48 793.40,435.90 783.51,415.60 C773.62,395.31 764.33,377.42 762.86,375.85 C761.02,373.88 759.22,373.00 757.03,373.00 C750.42,373.00 749.11,374.90 739.74,398.01 C733.50,413.41 722.80,440.62 719.48,449.50 C718.25,452.80 713.77,464.73 709.52,476.00 C685.25,540.43 669.00,586.93 669.00,591.92 C669.00,595.62 670.66,598.06 674.00,599.29 C676.37,600.16 676.53,600.12 679.96,597.75 ZM 870.90 598.36 C872.97,596.91 873.18,596.16 872.68,591.93 C871.36,580.81 863.95,572.50 848.65,565.00 C828.46,555.09 809.70,551.49 783.00,552.38 C757.23,553.23 739.30,557.58 716.24,568.54 C698.88,576.79 691.85,582.70 694.94,586.43 C696.02,587.73 697.34,587.35 705.10,583.45 C720.98,575.47 733.99,570.91 751.00,567.36 C761.10,565.25 790.51,564.42 801.19,565.93 C824.32,569.22 844.71,578.76 858.73,592.88 C863.01,597.18 866.55,599.88 868.03,599.97 C868.32,599.99 869.61,599.26 870.90,598.36 ZM 645.80 579.80 C647.63,577.97 647.24,575.44 644.64,572.33 C630.45,555.36 627.02,505.66 636.10,448.50 C637.23,441.35 640.38,423.81 643.10,409.52 C650.40,371.11 650.42,369.60 643.58,366.33 C639.28,364.28 634.56,365.36 631.86,369.01 C630.07,371.42 626.44,392.63 618.45,447.43 C617.09,456.74 615.80,464.53 615.59,464.74 C615.38,464.95 612.88,463.91 610.04,462.43 C605.30,459.95 604.20,459.77 596.55,460.25 C589.61,460.68 587.17,461.32 581.94,464.11 C571.32,469.78 561.96,479.52 553.25,494.00 C548.43,502.01 542.48,515.84 541.01,522.43 C539.78,527.94 537.13,531.89 527.43,542.69 C520.26,550.66 512.30,555.98 507.50,555.99 C500.12,556.00 494.35,548.24 491.53,534.51 C490.60,530.03 489.51,517.54 489.02,506.01 C488.31,489.13 487.79,484.52 486.08,479.94 C483.53,473.14 479.52,469.85 473.00,469.23 C461.40,468.11 448.61,480.36 430.95,509.50 C425.72,518.14 425.49,518.37 425.19,515.25 C425.01,513.46 425.80,505.35 426.94,497.22 C429.64,477.84 429.61,475.52 426.55,472.45 C421.92,467.83 413.78,470.26 412.12,476.76 C411.21,480.35 409.70,493.19 404.49,541.70 C403.18,553.91 402.36,565.47 402.68,567.39 C404.37,577.81 418.32,577.99 420.58,567.62 C422.08,560.70 429.61,541.65 436.49,527.35 C448.95,501.45 460.32,486.00 466.92,486.00 C469.31,486.00 470.24,491.31 471.04,509.37 C472.36,539.43 476.25,552.46 486.75,562.05 C499.78,573.96 512.58,572.13 529.44,555.94 C533.99,551.57 537.94,548.00 538.22,548.00 C538.49,548.00 538.97,550.46 539.29,553.48 C540.32,563.47 546.61,572.09 554.90,574.86 C570.57,580.11 590.06,563.25 607.05,529.75 C610.05,523.85 612.95,519.15 613.50,519.33 C614.05,519.51 614.61,521.19 614.75,523.08 C616.93,552.59 624.71,573.88 635.50,579.84 C638.18,581.31 644.31,581.29 645.80,579.80 ZM 343.75 573.63 C358.87,565.96 371.28,541.84 372.70,517.33 C373.66,500.83 370.24,488.93 362.61,482.24 C359.58,479.57 359.17,478.70 359.64,475.83 C360.45,470.78 356.74,467.75 349.07,467.20 C335.24,466.20 321.97,477.94 312.73,499.38 C301.32,525.84 302.09,554.14 314.60,567.98 C322.85,577.11 333.00,579.07 343.75,573.63 ZM 782.46 538.00 C788.18,538.00 791.59,536.30 796.27,531.12 C799.65,527.38 800.78,524.67 802.53,516.10 L 803.23 512.70 L 798.52 513.34 C793.25,514.07 785.54,517.20 782.68,519.79 C779.64,522.54 777.00,528.61 777.00,532.84 C777.00,535.10 776.37,537.28 775.50,538.00 C774.67,538.68 774.01,539.98 774.03,540.87 C774.06,542.16 774.45,542.04 775.94,540.25 C777.40,538.51 778.87,538.00 782.46,538.00 ZM 773.49 504.25 C781.17,498.92 784.14,488.09 780.09,480.21 C777.76,475.68 773.46,471.49 769.68,470.06 C763.44,467.70 753.45,469.48 748.68,473.79 C741.26,480.50 741.25,495.49 748.66,502.20 C755.60,508.47 766.16,509.35 773.49,504.25 ZM 316.00 638.06 C316.00,633.92 315.97,633.93 322.25,634.89 C323.45,635.07 323.11,639.49 321.80,640.80 C321.14,641.46 319.57,642.00 318.30,642.00 C316.29,642.00 316.00,641.50 316.00,638.06 ZM 428.37 641.75 C428.70,640.51 428.98,639.16 428.99,638.75 C429.02,637.11 430.74,638.14 431.77,640.40 C433.02,643.13 432.52,644.00 429.72,644.00 C428.18,644.00 427.90,643.52 428.37,641.75 ZM 481.45 641.35 C482.37,637.69 482.89,637.22 484.05,639.03 C485.43,641.18 484.75,643.42 482.61,643.84 C481.01,644.15 480.84,643.78 481.45,641.35 ZM 509.00 637.98 C509.00,634.10 509.10,633.99 511.75,634.62 C515.61,635.54 516.00,635.86 516.00,638.08 C516.00,639.27 514.99,640.43 513.43,641.02 C509.42,642.55 509.00,642.26 509.00,637.98 ZM 624.07 642.25 C624.11,641.29 624.51,639.60 624.96,638.50 C625.72,636.64 625.86,636.70 626.89,639.32 C628.44,643.24 628.29,644.00 626.00,644.00 C624.74,644.00 624.03,643.36 624.07,642.25 ZM 684.61 641.25 C685.62,636.94 686.66,636.57 687.88,640.07 C689.32,644.23 689.40,644.00 686.48,644.00 C684.24,644.00 684.03,643.69 684.61,641.25 ZM 559.76 560.03 C554.52,555.90 553.60,542.79 557.47,527.51 C561.55,511.45 571.21,493.66 581.37,483.50 C587.23,477.64 591.63,475.01 597.37,473.94 C603.74,472.76 607.49,474.40 610.43,479.65 C611.84,482.18 613.00,485.11 613.00,486.17 C613.00,489.56 605.98,507.18 600.32,518.00 C587.46,542.59 571.03,562.00 563.07,562.00 C562.63,562.00 561.14,561.11 559.76,560.03 ZM 328.52 559.72 C322.04,553.24 320.45,536.55 324.63,519.00 C326.65,510.51 333.92,495.50 338.31,490.75 C346.91,481.44 356.19,490.11 358.45,509.56 C359.27,516.68 356.99,532.28 353.92,540.48 C351.14,547.92 344.31,557.92 340.10,560.73 C335.40,563.87 332.41,563.61 328.52,559.72 Z" fill="rgb(249,240,230)"/>
</g>
</svg>